<svg xmlns="http://www.w3.org/2000/svg" xmlns:xlink="http://www.w3.org/1999/xlink" width="32" height="32" viewBox="0 0 32 32"><defs><style>.a{fill:#707070;}.b{clip-path:url(#a);}.c{fill:none;stroke:#000;stroke-linecap:round;stroke-linejoin:round;stroke-width:2px;}.d{fill:#fd3a6a;}.e{fill:#fff;font-size:12px;font-family:CeraPro-Medium, Cera Pro;font-weight:500;}</style><clipPath id="a"><rect class="a" width="24" height="24" transform="translate(-20113 -21030)"/></clipPath></defs><g transform="translate(-1695 -71)"><g class="b" transform="translate(21808 21109)"><g transform="translate(-20111.801 -21028.199)"><path class="c" d="M14.7,31.35A1.35,1.35,0,1,1,13.35,30,1.35,1.35,0,0,1,14.7,31.35Z" transform="translate(-5.385 -12.082)"/><path class="c" d="M31.2,31.35A1.35,1.35,0,1,1,29.85,30,1.35,1.35,0,0,1,31.2,31.35Z" transform="translate(-12.3 -12.082)"/><path class="c" d="M1.5,1.5H5.427L8.059,12.675a1.918,1.918,0,0,0,1.964,1.344h9.543a1.918,1.918,0,0,0,1.964-1.344l1.571-7H6.409" transform="translate(-1.5 -1.5)"/></g></g><circle class="d" cx="9" cy="9" r="9" transform="translate(1709 71)"/><text class="e" transform="translate(1715.5 84)"><tspan x="0" y="0">1</tspan></text></g></svg>