<svg xmlns="http://www.w3.org/2000/svg" width="65" height="58.75" viewBox="0 0 65 58.75"><defs><style>.a{fill:#3680fb;stroke:#f8fafe;}</style></defs><g transform="translate(0.5 -24.5)"><path class="a" d="M64,56.875c0-5.208-3.694-9.484-8.357-9.847a5.646,5.646,0,0,0-3.931-3.834C50.456,32.871,42.074,25,32,25S13.544,32.871,12.288,43.194a5.646,5.646,0,0,0-3.931,3.834q-.243.019-.482.052V34.875a1.875,1.875,0,0,0-3.75,0V48.581A10.136,10.136,0,0,0,0,56.875c0,5.208,3.694,9.484,8.357,9.847a5.646,5.646,0,0,0,3.913,3.829A9.889,9.889,0,0,0,22,78.75h.434a5.884,5.884,0,0,0,5.566,4h8A5.875,5.875,0,0,0,36,71H28a5.884,5.884,0,0,0-5.566,4H22a6.135,6.135,0,0,1-5.921-4.557,5.634,5.634,0,0,0,3.8-5.318v-16.5A5.633,5.633,0,0,0,16.056,43.3C17.227,35.017,23.949,28.75,32,28.75S46.772,35.017,47.944,43.3a5.633,5.633,0,0,0-3.819,5.326v16.5A5.631,5.631,0,0,0,49.75,70.75h.5a5.634,5.634,0,0,0,5.393-4.028C60.306,66.359,64,62.083,64,56.875ZM28,74.75h8A2.125,2.125,0,0,1,36,79H28a2.125,2.125,0,0,1,0-4.25ZM3.75,56.875c0-2.973,1.928-5.533,4.375-6.036V62.911C5.678,62.409,3.75,59.848,3.75,56.875Zm12.375,8.25A1.877,1.877,0,0,1,14.25,67h-.5a1.877,1.877,0,0,1-1.875-1.875v-16.5A1.877,1.877,0,0,1,13.75,46.75h.5a1.877,1.877,0,0,1,1.875,1.875Zm36,0A1.877,1.877,0,0,1,50.25,67h-.5a1.877,1.877,0,0,1-1.875-1.875v-16.5A1.877,1.877,0,0,1,49.75,46.75h.5a1.877,1.877,0,0,1,1.875,1.875Zm3.75-2.214V50.839c2.447.5,4.375,3.063,4.375,6.036S58.322,62.409,55.875,62.911Z" transform="translate(0 0)"/></g></svg>