<svg xmlns="http://www.w3.org/2000/svg" width="16.3" height="14.738" viewBox="0 0 16.3 14.738"><defs><style>.a{fill:#3680fb;stroke:#3680fb;stroke-width:0.3px;}</style></defs><g transform="translate(0.15 -24.85)"><path class="a" d="M16,32.969a2.389,2.389,0,0,0-2.089-2.462,1.412,1.412,0,0,0-.983-.959A5.055,5.055,0,0,0,8,25a5.055,5.055,0,0,0-4.928,4.548,1.411,1.411,0,0,0-.983.959q-.061,0-.121.013V27.469a.469.469,0,0,0-.938,0V30.9A2.534,2.534,0,0,0,0,32.969a2.389,2.389,0,0,0,2.089,2.462,1.412,1.412,0,0,0,.978.957A2.472,2.472,0,0,0,5.5,38.438h.108a1.471,1.471,0,0,0,1.392,1H9A1.469,1.469,0,1,0,9,36.5H7a1.471,1.471,0,0,0-1.392,1H5.5a1.534,1.534,0,0,1-1.48-1.139,1.408,1.408,0,0,0,.949-1.33V30.906a1.408,1.408,0,0,0-.955-1.331A4.113,4.113,0,0,1,8,25.938a4.113,4.113,0,0,1,3.986,3.637,1.408,1.408,0,0,0-.955,1.331v4.125a1.408,1.408,0,0,0,1.406,1.406h.125a1.409,1.409,0,0,0,1.348-1.007A2.389,2.389,0,0,0,16,32.969ZM7,37.438H9A.531.531,0,0,1,9,38.5H7a.531.531,0,0,1,0-1.062ZM.937,32.969A1.507,1.507,0,0,1,2.031,31.46v3.018A1.507,1.507,0,0,1,.937,32.969Zm3.094,2.063a.469.469,0,0,1-.469.469H3.437a.469.469,0,0,1-.469-.469V30.906a.469.469,0,0,1,.469-.469h.125a.469.469,0,0,1,.469.469Zm9,0a.469.469,0,0,1-.469.469h-.125a.469.469,0,0,1-.469-.469V30.906a.469.469,0,0,1,.469-.469h.125a.469.469,0,0,1,.469.469Zm.938-.554V31.46a1.588,1.588,0,0,1,0,3.018Z"/></g></svg>