<svg xmlns="http://www.w3.org/2000/svg" width="48" height="48" viewBox="0 0 48 48"><defs><style>.a{fill:#eaf0fa;}</style></defs><g transform="translate(-1 -1)"><g transform="translate(18.806 1.774)"><path class="a" d="M24,24H36.387V36.387H24Z" transform="translate(-24 -6.968)"/><path class="a" d="M24,2H36.387V14.387H24Z" transform="translate(-24 -2)"/><path class="a" d="M24,46H36.387V58.387H24Z" transform="translate(-24 -11.935)"/></g><path class="a" d="M2,24H14.387V36.387H2Z" transform="translate(-0.226 -5.194)"/><path class="a" d="M2,2H14.387V14.387H2Z" transform="translate(-0.226 -0.226)"/><path class="a" d="M2,46H14.387V58.387H2Z" transform="translate(-0.226 -10.161)"/><path class="a" d="M46,24H58.387V36.387H46Z" transform="translate(-10.161 -5.194)"/><path class="a" d="M46,2H58.387V14.387H46Z" transform="translate(-10.161 -0.226)"/><path class="a" d="M46,46H58.387V58.387H46Z" transform="translate(-10.161 -10.161)"/><path class="a" d="M36.161,23H23.774a.774.774,0,0,0-.774.774V36.161a.774.774,0,0,0,.774.774H36.161a.774.774,0,0,0,.774-.774V23.774A.774.774,0,0,0,36.161,23Zm-.774,12.387H24.548V24.548H35.387Z" transform="translate(-4.968 -4.968)"/><path class="a" d="M36.161,1H23.774A.774.774,0,0,0,23,1.774V14.161a.774.774,0,0,0,.774.774H36.161a.774.774,0,0,0,.774-.774V1.774A.774.774,0,0,0,36.161,1Zm-.774,12.387H24.548V2.548H35.387Z" transform="translate(-4.968)"/><path class="a" d="M36.161,45H23.774a.774.774,0,0,0-.774.774V58.161a.774.774,0,0,0,.774.774H36.161a.774.774,0,0,0,.774-.774V45.774A.774.774,0,0,0,36.161,45Zm-.774,12.387H24.548V46.548H35.387Z" transform="translate(-4.968 -9.935)"/><path class="a" d="M14.161,23H1.774A.774.774,0,0,0,1,23.774V36.161a.774.774,0,0,0,.774.774H14.161a.774.774,0,0,0,.774-.774V23.774A.774.774,0,0,0,14.161,23Zm-.774,12.387H2.548V24.548H13.387Z" transform="translate(0 -4.968)"/><path class="a" d="M14.161,1H1.774A.774.774,0,0,0,1,1.774V14.161a.774.774,0,0,0,.774.774H14.161a.774.774,0,0,0,.774-.774V1.774A.774.774,0,0,0,14.161,1Zm-.774,12.387H2.548V2.548H13.387Z"/><path class="a" d="M14.161,45H1.774A.774.774,0,0,0,1,45.774V58.161a.774.774,0,0,0,.774.774H14.161a.774.774,0,0,0,.774-.774V45.774A.774.774,0,0,0,14.161,45Zm-.774,12.387H2.548V46.548H13.387Z" transform="translate(0 -9.935)"/><path class="a" d="M58.161,23H45.774a.774.774,0,0,0-.774.774V36.161a.774.774,0,0,0,.774.774H58.161a.774.774,0,0,0,.774-.774V23.774A.774.774,0,0,0,58.161,23Zm-.774,12.387H46.548V24.548H57.387Z" transform="translate(-9.935 -4.968)"/><path class="a" d="M58.161,1H45.774A.774.774,0,0,0,45,1.774V14.161a.774.774,0,0,0,.774.774H58.161a.774.774,0,0,0,.774-.774V1.774A.774.774,0,0,0,58.161,1Zm-.774,12.387H46.548V2.548H57.387Z" transform="translate(-9.935)"/><path class="a" d="M58.161,45H45.774a.774.774,0,0,0-.774.774V58.161a.774.774,0,0,0,.774.774H58.161a.774.774,0,0,0,.774-.774V45.774A.774.774,0,0,0,58.161,45Zm-.774,12.387H46.548V46.548H57.387Z" transform="translate(-9.935 -9.935)"/></g></svg>