<svg xmlns="http://www.w3.org/2000/svg" width="32.078" height="19.2" viewBox="0 0 32.078 19.2"><defs><style>.a{fill:#fcb331;}.b{fill:#ed1b2e;}.c{fill:#fff;}</style></defs><path class="a" d="M180.521,66.85l.029-.007.022,0,.021-.005.015-.007.014-.01.005-.01.007-.015V66.77l0-.017-.007-.012-.009-.007-.01-.007-.015,0-.017,0h-.132v.13Z" transform="translate(-149.507 -55.282)"/><path class="a" d="M181.76,67.437l.014-.017-.007.007Z" transform="translate(-150.601 -55.862)"/><path class="a" d="M180.925,67.443l.014,0-.029.007Z" transform="translate(-149.897 -55.879)"/><path class="a" d="M178.81,67.178V67.2l.007-.079Z" transform="translate(-148.157 -55.614)"/><path class="a" d="M179.586,65.711l-.019-.07-.033-.065-.043-.055-.051-.046-.062-.033-.07-.022h-.149l-.072.022-.062.033-.051.046-.043.055-.031.065-.021.07v.156l.021.07.031.062.043.055.051.046.062.036.072.022h.149l.07-.022.062-.036.051-.046.043-.055.033-.062.019-.075v-.151Zm-.171.01v.041l-.014.017-.015.012h-.065l.1.161h-.065l-.1-.161h-.081v.161h-.1v-.377h.271l.022.014.017.019.012.019v.046Z" transform="translate(-148.215 -54.205)"/><path class="a" d="M183.527,67.1l0,.021-.009-.094Z" transform="translate(-152.059 -55.539)"/><path class="a" d="M109.562,9.086l-.036-.485-.062-.478-.074-.468-.106-.463-.13-.454L109,6.291l-.171-.434-.2-.425-.209-.415-.237-.389-.25-.391-.269-.377-.285-.358-.3-.343-.321-.334-.334-.317-.343-.3-.362-.286-.377-.267-.4-.266-.4-.23-.415-.211L103.7.754l-.437-.171L102.819.43,102.362.3,101.9.194,101.424.11l-.478-.062-.49-.034L99.962,0,99.47.014l-.489.034L98.5.11,98.03.194,97.567.3,97.111.43l-.444.153L96.23.754,95.8.948l-.41.211-.4.23-.387.25-.375.267-.363.286-.324.281.024.019.333.317.317.334.014.015h3.29v.514H94.665l.135.171.266.377.058.089h2.4v.514H95.441l.1.171.214.415.019.043h1.74v.514H96.005l.117.295.113.343h1.282v.514H96.389l.01.036.106.463.026.135h.986v.012l.034-.015.094-.036.1-.033.1-.026.1-.022.11-.019.11-.017.117-.012h.54l.1.014.091.014.087.019.084.015.077.021.075.019.065.019.062.021.051.019.045.015.039.014.029.014h.019l-.161.953-.043-.024L99.4,8.7l-.046-.022-.048-.024-.048-.019-.057-.019L99.151,8.6l-.058-.019-.062-.015-.06-.014L98.9,8.535l-.069-.01h-.473l-.087.01-.089.015-.091.026L98,8.613l-.091.046-.091.058-.087.07-.084.084-.081.1-.079.12-.07.142-.069.161-.062.182-.051.207-.019.117v.029h.237v.525h-.219l.027.093.036.1.048.087.058.084.069.075.077.067.087.058.1.05.11.041.123.029.041.01H98.5l.084-.01.084-.015.081-.022.082-.026.081-.036L98.985,11l.069-.051.065-.058-.146.857-.021.017-.019.019-.026.022-.029.021-.036.026-.045.022-.053.022-.058.021-.074.022-.084.015-.1.014-.113.012h-.442L97.694,12l-.147-.015-.149-.033-.149-.048-.149-.075-.142-.077-.135-.1-.063-.055h-.271l-.087.382-.072.252h1.2v.514H96.156l-.043.13-.171.437-.031.07h1.615V13.9h-1.85l-.129.25-.214.4h2.208v.514H94.99l-.185.261-.285.363v.01h3.026v.525H94.039l-.142.149-.333.319-.024.021.324.281.363.285.375.269.387.249.4.235.41.209.425.2.437.171.444.151.456.13.463.106.473.084.478.062.489.036.494.026.5-.014.49-.036.478-.062L101.9,19l.463-.106.456-.13.447-.151.437-.171.427-.2.415-.209.4-.235.391-.249.377-.269.362-.285.343-.3.334-.319.321-.343.3-.343.285-.363.269-.375.261-.387.233-.4.209-.415.2-.427.171-.437.151-.447.13-.456.106-.463.084-.477.062-.478.036-.49.014-.5Zm-7.371,2.206-.134.718v.015H101.2V11.7l-.05.051-.058.045-.069.046-.067.045-.079.039-.084.039-.081.031-.091.026-.091.027-.091.015-.094.014h-.271l-.091-.014-.117-.029L99.79,12l-.094-.041-.084-.053-.075-.051-.063-.062-.053-.062-.045-.067-.043-.069-.029-.074-.026-.075-.015-.07-.014-.075v-.219l.01-.127.019-.123.029-.117.041-.11.05-.106.063-.1.069-.091.077-.081.086-.077.087-.069.1-.065.1-.051.1-.045.108-.036.11-.029.113-.019h1.1l.009-.058.01-.065V9.653h0l-.014-.069-.026-.058-.039-.055-.045-.045-.055-.039-.065-.029-.069-.019h-.675l-.1.01-.1.014-.094.012-.094.017-.084.015-.077.017-.072.019-.055.019-.041.022L99.79,9.5l-.033-.019.226-.782V8.69h.01l.07-.029.075-.026.077-.022.077-.017.081-.015.082-.014.087-.012h.981l.1.015.1.024.106.029.1.038.1.046.1.058.094.06.081.072.077.081.065.091.051.1.036.106.022.113v.123l-.015.132Zm2.081-1.9-.094.033-.084.039-.074.048-.065.051-.058.055-.051.062-.043.065-.039.069-.033.07-.026.072-.019.07-.019.072-.014.07-.327,1.843h-.912l.605-3.468h.91l-.1.586.046-.065L103.925,9l.048-.062.048-.055.053-.051.051-.051.055-.046.058-.045.062-.039.065-.036.067-.031.072-.026.077-.024.081-.015.087-.01h.091l-.146.833h-.207l-.113.019Zm3.178,2.619h-.888l.065-.36v-.033l-.051.065-.055.058-.055.051-.058.046-.058.041-.058.036-.058.029-.062.029-.062.022-.062.017-.062.015-.065.01-.063.01h-.192l-.171-.012L105.338,12l-.142-.055-.129-.075-.117-.093-.1-.111-.091-.12-.077-.135-.065-.146-.051-.153-.036-.158-.026-.171-.01-.171v-.171l.017-.171.029-.171.055-.153.058-.182.069-.171.081-.156.084-.146.1-.129.1-.117.108-.108.113-.093.12-.082.123-.07.122-.055.13-.046.129-.029.13-.019h.226l.091.01.084.015.077.022.075.026.065.029.063.036.058.036.053.039.048.041.041.043.039.041.033.043.029.041.026.039.019.039.228-1.272h.879Zm1.507-.331-.026.087-.046.079-.055.063-.069.055-.077.043-.084.026-.091.01-.091-.01L108.334,12l-.077-.043-.069-.055-.055-.063-.045-.079-.026-.087-.01-.094.01-.093.026-.087.045-.079.055-.067.069-.055.077-.039.084-.026.091-.01.091.01.084.026.077.039.069.055.055.067.046.079.026.087v.187Z" transform="translate(-77.505)"/><path class="a" d="M111.521,48.7l.058-.086.058-.081.046-.055h-.214l.033.25Z" transform="translate(-92.361 -40.169)"/><path class="a" d="M178.26,67.03l-.01.094,0-.021Z" transform="translate(-147.693 -55.539)"/><path class="b" d="M73.183,55.805l0,.065.017.055.033.043.041.036.058.022.065.019.072.014.077.005.072,0,.053-.007-.048-.269-.062-.478-.009-.12h-.1l-.033-.525h.106l-.009-.341L73.519,54H73.5Z" transform="translate(-60.635 -44.743)"/><path class="b" d="M15.681,16.38l-.142-.149h0l-.043-.048-.13-.137-.3-.343-.288-.37-.185-.261h0l-.021-.033-.058-.082-.252-.386-.23-.4-.129-.25h0l-.017-.026-.074-.144-.192-.427-.171-.437-.149-.447-.129-.456-.034-.149v.026l-.022.015-.022.014-.024.014-.022.012-.022.01H13l-.029.01-.029.01h-.585l-.13.055-.113-.012-.1-.021-.087-.022-.075-.029-.06-.033-.057-.038-.041-.043-.031-.046-.022-.057-.017-.055-.009-.062v-.213l.01-.081.619-3.533h.811l.017-.1.108-.463.01-.036h0V7.135l.113-.4.149-.446.171-.434.192-.425.213-.415.238-.389.25-.391.266-.377.135-.171h0l.149-.187.3-.343.319-.334.333-.317.022-.019-.324-.281-.362-.286-.375-.283-.389-.25-.4-.23L13.773.948,13.349.754,12.912.583,12.468.43,12.012.3,11.549.194,11.076.11,10.6.048,10.114.014,9.615,0l-.5.014L8.631.048,8.153.11,7.677.194,7.214.3,6.758.43,6.31.583,5.873.754,5.446.948l-.415.211-.4.23-.391.25-.375.267L3.5,2.193l-.343.3-.334.317L2.5,3.144l-.3.343-.285.358-.267.377-.257.406-.233.389-.211.415-.194.425-.171.434L.43,6.737.3,7.2l-.108.463L.11,8.124.048,8.6l-.034.483L0,9.579l.014.5.034.49.062.478.084.477.108.463.129.456.153.447.171.437.194.427.211.415.233.406.25.391.267.375.285.363.3.343.321.343.334.319.343.3.362.285.375.269.4.242.4.235.415.209.427.2.437.171.447.151.456.13L7.675,19l.477.084.478.062.489.036.5.014.5-.014.489-.036.48-.062L11.556,19l.463-.106.456-.13.444-.151.437-.171.423-.2.411-.209.4-.235.389-.249.375-.269L15.718,17l.324-.281L16.02,16.7ZM5.232,12.009H4.351l.557-3.177H4.872L3.555,12.009H2.561v-.134l-.022-.343-.029-.5-.033-.576-.033-.579L2.415,9.36l-.022-.369V8.835H2.331l-.538,3.173H.914l.734-4.251H3.18l.146,2.529L4.383,7.764h1.6Zm3.374-.718-.13.718H7.659l.024-.134.015-.118.014-.091.012-.05-.045.053-.051.051-.062.048-.069.046-.077.045-.082.039-.084.038-.087.033L7.075,12l-.094.022-.094.021-.1.012H6.514l-.087-.012-.113-.029-.1-.033-.089-.043-.082-.048-.07-.051L5.9,11.779l-.051-.062-.05-.06-.038-.069-.033-.07-.026-.072-.021-.07L5.673,11.3l-.015-.079v-.149l.01-.127.019-.12.033-.113.043-.11.051-.1.058-.094.069-.091.077-.081.081-.075.091-.067.094-.062.1-.053.1-.045L6.59,9.9,6.7,9.867l.113-.019h1.1V9.825l.021-.058L7.954,9.7V9.638l-.014-.072L7.911,9.5l-.026-.1-.053-.05-.062-.041-.057-.029L7.63,9.257H7.046l-.1.01-.1.01-.1.012-.1.014-.093.015-.084.017-.079.015-.07.021-.058.019-.046.022-.038.015.231-.78.07-.029.072-.026.077-.022L6.7,8.556l.079-.017.084-.012.084-.014h1l.1.017.1.022.1.029.1.038.1.046.1.055.091.062.081.07.072.079.063.087.05.1.033.1.019.11v.123l-.019.129Zm2.868-2h-.883l-.065.01h-.062l-.055.021-.05.019-.045.022-.043.026-.031.033-.029.029-.021.036-.015.036V9.6l.01.043.012.041.026.043.033.041.065.062.077.05.091.041.1.036.1.033.108.036.106.038.1.043.1.055.091.069.081.081.069.1.051.123.033.146.014.171-.014.2-.022.153-.039.132-.051.123-.065.106-.074.094-.086.081L11,11.811l-.1.062-.1.048-.108.043-.11.033-.113.026L10.354,12l-.108.01H9.288L9.214,12H9.146l-.06-.027-.06-.01-.057-.015-.055-.014-.051-.019L8.811,11.9l-.055-.021L8.9,11.16h.065l.045.014.055.014.058.012.065.014.07.015.079.014.081.012.084.014.087.01.091.009.089.027h.281l.094-.019.074-.026.058-.036.046-.046.033-.045.026-.051.015-.051.014-.05V10.9l-.021-.1-.055-.065-.081-.055-.1-.048-.115-.048-.125-.046-.127-.051-.129-.058-.123-.069-.113-.074-.1-.1-.081-.123-.058-.146-.029-.171V9.538l.015-.127L9.2,9.293l.031-.111.039-.1.051-.1L9.375,8.9l.069-.081.081-.072.094-.06.1-.053.117-.048.13-.036.146-.029.158-.022.171-.014h.946l.045.01h.2Z"/><path class="b" d="M76.265,41.776l-.108.463-.017.1h.086l-.005.033h5.892l-.024-.135-.106-.463-.01-.036h-5.7Z" transform="translate(-63.087 -34.585)"/><path class="b" d="M102.975,61.211l-.039-.218,0-.063h-1.154l-.108.634H103.1l-.065-.156Z" transform="translate(-84.241 -50.485)"/><path class="b" d="M83.31,57.58h0l-.12.622Z" transform="translate(-68.929 -47.709)"/><path class="b" d="M85.076,54.3l.005-.081,0-.077-.005-.072-.014-.063-.022-.062-.022-.055-.033-.05-.033-.045-.039-.039-.041-.033-.05-.029-.048-.026-.051-.019-.053-.014-.055-.009-.058-.007-.06,0-.06.009-.055.014-.055.019-.055.026-.048.029-.048.036-.043.039-.043.045-.038.05-.036.051L83.984,54l-.029.058-.022.065-.019.063-.014.069-.01.048Z" transform="translate(-69.509 -44.428)"/><path class="b" d="M83.18,61.225h0l0-.015Z" transform="translate(-68.921 -50.717)"/><path class="b" d="M81.229,81.42l.23.4.25.391.058.082-.309-.489h3.559l.219-.386.129-.25H81.1Z" transform="translate(-67.197 -67.255)"/><path class="b" d="M78.544,21.641l-.266.375-.25.393-.23.4-.213.415-.192.423-.171.435-.149.446-.113.4.156-.5H82.5l-.113-.343-.117-.295H77.346l.226-.521h4.467l-.019-.043-.214-.415-.1-.178H77.915l.309-.521h3.163l-.058-.091-.266-.375-.135-.171H78.679Z" transform="translate(-63.767 -17.789)"/><path class="b" d="M87.758,14.766l-.319.334-.3.35-.149.187.441-.521H88.8l-.014-.015-.317-.334-.334-.317-.022-.019-.022.019Z" transform="translate(-72.077 -11.956)"/><path class="b" d="M85.3,88.181l.285.363.3.35.13.137-.415-.477h1.925l.009-.01.285-.363L88,87.92H85.11Z" transform="translate(-70.52 -72.848)"/><path class="b" d="M79.507,52.178h-.929l.605-3.468h.929L80,49.3l.048-.065.05-.065.045-.06.048-.057.05-.055.048-.048.051-.048.055-.043.058-.038.062-.033.069-.033.074-.026.079-.021.084-.015.091-.01.1-.007h.022l.024,0,.026,0H81.1l.022,0,.017,0,.012,0h0l-.007.01-.015.022-.022.038-.029.05-.033.055-.033.062-.033.062-.026.06-.029.091-.029.091-.022.091-.024.084-.015.072-.014.058-.009.038,0,.014h0l-.01,0-.012,0-.017,0h-.015l-.015,0-.014,0h-.01l-.125.01-.111.017-.1.026-.091.029-.077.034-.072.039-.058.048-.051.05-.046.055-.038.058L79.912,50l-.026.065-.009.026h1.058l.022-.163.026-.132.029-.13.033-.125.033-.12.036-.113.041-.113.043-.108.045-.1.05-.1.048-.094.036-.06-.033-.25H75.278l-.038.23h.54l-.117.732-.545-.015-.009.322.009.341H75.6l.021-.1.036-.135.05-.139.057-.141.075-.141.091-.137.1-.129.127-.123.142-.11.161-.1.189-.081.211-.058.233-.039.262-.014.125,0,.134.014.132.022.134.033.129.048.127.058.117.079.106.091.1.11.081.129.065.149.045.171.026.2,0,.219-.022.247-.048.271-.017.2h-2.1l-.007.039,0,.058.007.062.012.062.022.062.027.058.034.062.039.055.045.055.05.048.051.05.058.038.058.036.065.029.063.022.065.014.084.012.082.01.084.01.084.005.084,0h.087l.084,0,.087-.005.087-.014.087-.015.091-.021.087-.029.091-.036.093-.038.091-.051.094-.057-.129.8-.053.026-.051.026-.051.021-.048.019-.05.015-.051.017L78,52.131l-.055.01-.058.01-.065.007-.069.005-.074.007-.084,0H77.5l-.1,0H77.3l-.159,0-.161-.015-.163-.024-.161-.038-.159-.05-.151-.062-.146-.081-.137-.093-.125-.111-.11-.132-.094-.149-.079-.171-.055-.192-.036-.216-.009-.226h-.4l.009.12.062.478.048.269h.01l.058-.01.051-.012.043-.014.029-.01.019-.005.007,0L75.377,52l.034.149.129.456.149.447.171.437.192.427.074.144-.233-.5h4.754l.031-.07.173-.437.043-.13H75.648l-.163-.521h5.571l.072-.252.087-.382H79.576Z" transform="translate(-62.234 -40.169)"/><path class="b" d="M91.494,94.829l.142-.149h-1l.142.149.333.321.022.019.022-.019Z" transform="translate(-75.102 -78.449)"/><path class="a" d="M97.987,18.951h2.853V18.43H97.55l.288.334Z" transform="translate(-80.827 -15.271)"/><path class="a" d="M86.99,21.47Z" transform="translate(-72.077 -17.789)"/><path class="a" d="M86.99,18.951h2.247l-.149-.187L88.8,18.43h-1.37Z" transform="translate(-72.077 -15.271)"/><path class="a" d="M103.1,25.711h2.076V25.19H102.78l.19.3Z" transform="translate(-85.161 -20.872)"/><path class="a" d="M82.53,25.711h3.789l-.127-.219-.19-.3H82.839Z" transform="translate(-68.382 -20.872)"/><path class="a" d="M106.818,32.461h1.512V31.94h-1.74l.171.381Z" transform="translate(-88.317 -26.465)"/><path class="a" d="M79.21,32.461h4.922l-.057-.141L83.9,31.94H79.436Z" transform="translate(-65.631 -26.465)"/><path class="a" d="M109.414,39.221h1.128V38.7H109.26l.034.1Z" transform="translate(-90.53 -32.066)"/><path class="a" d="M76.92,41.641h0l.005-.021Z" transform="translate(-63.734 -34.485)"/><path class="a" d="M76.935,39.2l-.005.021h5.7l-.12-.418-.034-.1H77.091Z" transform="translate(-63.742 -32.066)"/><path class="a" d="M108.85,71.891h1.368V71.37h-1.205l-.058.2Z" transform="translate(-90.19 -59.135)"/><path class="a" d="M77.463,71.891h5.246l.1-.317.058-.2H77.3Z" transform="translate(-64.049 -59.135)"/><path class="a" d="M105.98,78.651h1.86V78.13h-1.615l-.159.357Z" transform="translate(-87.812 -64.736)"/><path class="a" d="M81.05,81.071h0l-.01-.021Z" transform="translate(-67.147 -67.156)"/><path class="a" d="M79.913,78.631l.01.021h4.265l.086-.165.159-.357H79.68Z" transform="translate(-66.021 -64.736)"/><path class="a" d="M102.051,85.286l-.081.115h2.547V84.88h-2.208l-.01.015Z" transform="translate(-84.489 -70.329)"/><path class="a" d="M85.009,87.763h0l-.021-.033Z" transform="translate(-70.42 -72.691)"/><path class="a" d="M83.5,85.369l.021.033h2.89l.081-.115.249-.391.01-.015H83.19Z" transform="translate(-68.929 -70.329)"/><path class="a" d="M96.45,92.145h3.494V91.62H96.918l-.293.339Z" transform="translate(-79.916 -75.914)"/><path class="a" d="M90.413,94.448h0L90.37,94.4Z" transform="translate(-74.878 -78.217)"/><path class="a" d="M88.365,92.1l.046.048h1l.175-.185.293-.339H87.95Z" transform="translate(-72.873 -75.914)"/><path class="a" d="M111.064,45.961h.214l.019-.022.063-.072.069-.067.074-.065.075-.062.077-.055.081-.051.089-.05.087-.041.055-.024V45.44h-.987l.06.333Z" transform="translate(-91.955 -37.65)"/><path class="a" d="M76.09,45.961h6.065l-.024-.189-.06-.333H76.179Z" transform="translate(-63.046 -37.65)"/><path class="a" d="M110.814,66.33l-.038-.05-.027.158-.019.081H111l-.067-.058Z" transform="translate(-91.748 -54.918)"/><path class="a" d="M102.847,64.913l-.069-.1-.091-.161-.012-.026h-1.428l-.087.521H102.8l.019-.081Z" transform="translate(-83.818 -53.551)"/><path class="a" d="M114.88,58.067l0,.11.01.11.022.1,0,0h.216V57.87H114.9l-.01.084Z" transform="translate(-95.186 -47.949)"/><path class="a" d="M102.375,57.976l-.015.069-.014.07-.046.279h1.154l-.01-.166.007-.252.014-.106h-1.058l-.015.038Z" transform="translate(-84.763 -47.949)"/><path class="a" d="M74.573,58.395h.1l-.026-.37-.005-.154H74.54Z" transform="translate(-61.762 -47.949)"/><path class="a" d="M75.191,58.395h.4v-.014l.015-.266.014-.1.019-.12.005-.022H75.16l.005.154Z" transform="translate(-62.275 -47.949)"/><path class="c" d="M83.9,57.3l-.01.048h0Z" transform="translate(-69.509 -47.477)"/><path class="c" d="M83.14,61.339l.007-.039h0Z" transform="translate(-68.887 -50.791)"/><path class="a" d="M164.835,54.915l-.014-.082-.022-.077-.026-.074-.033-.065-.039-.062-.043-.051-.048-.046-.055-.038-.058-.026-.062-.017-.067-.007-.087.007-.082.014-.074.026-.075.033-.063.041-.065.053-.055.055-.055.06-.05.072-.045.074-.043.079-.034.084-.033.087-.026.087-.027.094-.019.093-.015.142.007.156.022.159.041.151.065.134.084.106.106.072.13.026.091-.007.084-.019.077-.024.075-.034.067-.039.065-.048.062-.055.055-.058.048-.065.046-.072.041-.074.036-.079.033-.081.026-.084.022-.087.017-.087.015-.091.01-.093V55.09l0-.091Z" transform="translate(-135.488 -45.049)"/><path class="b" d="M40.015,60.616,40,60.605l-.033-.007-.036-.005-.041,0h-.1l-.051,0-.055.005-.051.007-.053.007-.048.007-.045.009-.039.01-.036.01-.022.005-.026.01-.036.014-.036.015-.041.019-.043.024-.045.022-.043.026-.045.033-.043.033-.038.039-.036.038-.033.043-.022.045-.021.051-.009.053,0,.11.015.087.033.063.043.05.048.033.055.019.051.01.051,0,.1,0,.087-.01.084-.014.075-.019.063-.022.062-.029.055-.029.05-.036.041-.033.039-.038.033-.036.026-.039.022-.038.021-.039.015-.036.01-.036.026-.093L40,60.835l.019-.1.017-.084,0-.017Z" transform="translate(-32.207 -50.203)"/><path class="c" d="M143.061,69.92h-.017l0,.019Z" transform="translate(-118.519 -57.934)"/><path class="a" d="M133.815,60.6l-.022-.01-.033-.009-.036,0-.043,0h-.048l-.048,0-.053.007-.051.005-.051.007-.048.007-.05.009-.041.007-.043.01-.033.007-.022,0-.026.009-.033.01-.036.012-.041.021-.039.019-.045.022-.043.029-.041.029-.043.036-.036.036-.034.041-.029.046-.024.048-.019.051-.01.057,0,.11.017.087.026.063.039.05.048.033.055.019.055.01.055,0,.1,0,.091-.01.084-.015.074-.024.072-.026.062-.029.058-.033.051-.038.046-.036.038-.043.036-.038.029-.043.022-.038.017-.039.012-.039.01-.036.012-.089.017-.094.012-.091.007-.081-.007-.021Z" transform="translate(-109.943 -50.187)"/><path class="c" d="M182.973,67.178h0l-.005-.058Z" transform="translate(-151.604 -55.614)"/><path class="c" d="M182.993,67.481l0-.021h0Z" transform="translate(-151.62 -55.895)"/></svg>