<svg xmlns="http://www.w3.org/2000/svg" width="20" height="20" viewBox="0 0 20 20"><defs><style>.a{fill:#bbcdee;}</style></defs><g transform="translate(-0.002)"><path class="a" d="M21451.725,16783v-3.529a8.984,8.984,0,0,1-3.723-7.215,8.861,8.861,0,0,1,2.928-6.543A10.341,10.341,0,0,1,21458,16763c5.514,0,10,4.156,10,9.262s-4.486,9.256-10,9.256a10.783,10.783,0,0,1-2.871-.387l-3.4,1.867Zm5.221-13.334-5.469,5.8,4.969-2.715v0l2.549,2.715,5.463-5.8-4.908,2.715Z" transform="translate(-21448 -16763)"/></g></svg>