<svg xmlns="http://www.w3.org/2000/svg" width="20.483" height="24" viewBox="0 0 20.483 24"><defs><style>.a{fill:#03a9f4;}.b{fill:#283593;}</style></defs><path class="a" d="M148.386,116.333a.5.5,0,0,0-.75.377c-.018.164-.046.328-.081.5-.979,4.443-2.945,6.6-6.012,6.6h-4.5a.5.5,0,0,0-.489.4l-1.5,7.031-.268,1.79a1.5,1.5,0,0,0,1.467,1.779h3.01a1.493,1.493,0,0,0,1.455-1.139l1.216-4.861h2.609c3.079,0,5.207-2.455,5.992-6.913h0A5.226,5.226,0,0,0,148.386,116.333Z" transform="translate(-130.201 -110.814)"/><path class="b" d="M54.755,1.782A5.262,5.262,0,0,0,50.855,0h-8.28A2.487,2.487,0,0,0,40.1,2.126L37.53,19.277A1.5,1.5,0,0,0,39.015,21h3.84a.5.5,0,0,0,.489-.4L44.759,14h4.1c3.558,0,5.909-2.487,6.989-7.4a5.888,5.888,0,0,0,.1-.593A5.163,5.163,0,0,0,54.755,1.782Z" transform="translate(-37.513 0)"/></svg>