<svg xmlns="http://www.w3.org/2000/svg" width="15.9" height="15.9" viewBox="0 0 15.9 15.9"><defs><style>.a{fill:none;stroke:#3680fb;stroke-width:1.5px;}</style></defs><g transform="translate(0.75 0.75)"><path class="a" d="M13.245,9.452a8.176,8.176,0,0,1-2.568-.409,1.174,1.174,0,0,0-1.141.241L7.916,10.506A8.948,8.948,0,0,1,3.893,6.484L5.08,4.907a1.164,1.164,0,0,0,.286-1.179,8.188,8.188,0,0,1-.411-2.572A1.157,1.157,0,0,0,3.8,0H1.155A1.157,1.157,0,0,0,0,1.155,13.259,13.259,0,0,0,13.245,14.4,1.157,1.157,0,0,0,14.4,13.244V10.607A1.157,1.157,0,0,0,13.245,9.452Z"/></g></svg>