<svg xmlns="http://www.w3.org/2000/svg" width="19.966" height="20" viewBox="0 0 19.966 20"><defs><style>.a{fill:#bbcdee;}</style></defs><path class="a" d="M10.424,0A9.987,9.987,0,0,0,6.431,19.139,8.908,8.908,0,0,1,6.6,16.833c.207-.826,1.274-5.439,1.274-5.439a4.036,4.036,0,0,1-.31-1.583c0-1.48.861-2.582,1.928-2.582a1.35,1.35,0,0,1,1.343,1.515,21.322,21.322,0,0,1-.9,3.546,1.545,1.545,0,0,0,1.583,1.928c1.893,0,3.167-2.444,3.167-5.3,0-2.2-1.48-3.821-4.165-3.821A4.742,4.742,0,0,0,5.6,9.879a2.865,2.865,0,0,0,.654,1.962.489.489,0,0,1,.138.551c-.034.172-.172.62-.207.792a.353.353,0,0,1-.516.241c-1.411-.585-2.031-2.1-2.031-3.821,0-2.823,2.375-6.231,7.126-6.231,3.821,0,6.334,2.754,6.334,5.714,0,3.924-2.169,6.85-5.37,6.85A2.9,2.9,0,0,1,9.288,14.7S8.7,17.005,8.6,17.453a8.125,8.125,0,0,1-1,2.134A9.657,9.657,0,0,0,10.424,20a10,10,0,0,0,0-20" transform="translate(-0.441)"/></svg>