<svg xmlns="http://www.w3.org/2000/svg" width="54.703" height="65.153" viewBox="0 0 54.703 65.153"><defs><style>.a{fill:#3680fb;stroke:#f8fafe;}</style></defs><g transform="translate(-16.649 0.653)"><path class="a" d="M70.82,16.479c-.033-1.728-.064-3.36-.064-4.939a2.24,2.24,0,0,0-2.24-2.24c-9.58,0-16.875-2.753-22.955-8.665a2.24,2.24,0,0,0-3.123,0C36.358,6.546,29.065,9.3,19.485,9.3a2.24,2.24,0,0,0-2.24,2.24c0,1.579-.031,3.212-.064,4.941-.307,16.08-.728,38.1,26.085,47.4a2.238,2.238,0,0,0,1.467,0C71.547,54.583,71.127,32.56,70.82,16.479ZM44,59.383C21,51.03,21.352,32.73,21.661,16.566c.019-.97.036-1.91.049-2.832,8.973-.379,16.148-3.1,22.29-8.448,6.143,5.351,13.319,8.07,22.292,8.448.013.921.03,1.861.049,2.831C66.649,32.73,67,51.029,44,59.383Z"/><path class="a" d="M87.759,79.542,76.947,90.353,72.333,85.74a2.24,2.24,0,0,0-3.168,3.168l6.2,6.2a2.24,2.24,0,0,0,3.168,0l12.4-12.4a2.24,2.24,0,1,0-3.168-3.168Z" transform="translate(-36.046 -55.323)"/></g></svg>