<svg xmlns="http://www.w3.org/2000/svg" width="64" height="64" viewBox="0 0 64 64"><defs><style>.a{fill:#3680fb;}</style></defs><g transform="translate(0 0)"><path class="a" d="M37.667,39a1.334,1.334,0,0,1-1.333-1.333V32.333A14.686,14.686,0,0,0,21.667,17.667H16.333a1.333,1.333,0,1,1,0-2.667h5.333A17.353,17.353,0,0,1,39,32.333v5.333A1.334,1.334,0,0,1,37.667,39Z" transform="translate(25 25)"/><path class="a" d="M25.667,30.665a1.323,1.323,0,0,1-.867-.32l-9.333-8a1.334,1.334,0,0,1,0-2.027l9.333-8a1.333,1.333,0,1,1,1.733,2.027l-8.152,6.987,8.152,6.987a1.333,1.333,0,0,1-.867,2.347Z" transform="translate(25 20.001)"/><path class="a" d="M42.333,41.667H5a4,4,0,0,1-4-4V8.333A1.334,1.334,0,0,1,2.333,7H47.667A1.334,1.334,0,0,1,49,8.333v8.16a1.333,1.333,0,0,1-2.667,0V9.667H3.667v28A1.337,1.337,0,0,0,5,39H42.333a1.333,1.333,0,1,1,0,2.667Z" transform="translate(1.667 11.667)"/><path class="a" d="M21.667,12.667H8.333a1.333,1.333,0,0,1,0-2.667H21.667a1.333,1.333,0,0,1,0,2.667Z" transform="translate(11.667 16.667)"/><path class="a" d="M52,16.333H1.333A1.334,1.334,0,0,1,0,15V4.333A1.334,1.334,0,0,1,1.333,3H52a1.334,1.334,0,0,1,1.333,1.333V15A1.334,1.334,0,0,1,52,16.333ZM2.667,13.667h48v-8h-48Z" transform="translate(0 5)"/><path class="a" d="M52,10.667a1.339,1.339,0,0,1-.944-.389L43.447,2.667H9.884L2.276,10.277A1.333,1.333,0,0,1,.391,8.392l8-8A1.323,1.323,0,0,1,9.332,0H44a1.343,1.343,0,0,1,.944.389l8,8A1.335,1.335,0,0,1,52,10.667Z" transform="translate(0.001 0)"/></g></svg>