<svg xmlns="http://www.w3.org/2000/svg" width="14" height="13.416" viewBox="0 0 14 13.416"><defs><style>.a{fill:#9cabc7;}</style></defs><path class="a" d="M3.134,13.909A.745.745,0,0,1,2.409,13l.9-3.967L.255,6.353a.745.745,0,0,1,.422-1.3l4.041-.367L6.316.944a.744.744,0,0,1,1.369,0l1.6,3.74,4.041.367a.745.745,0,0,1,.423,1.3L10.692,9.031l.9,3.967a.744.744,0,0,1-1.107.8L7,11.719,3.515,13.8A.746.746,0,0,1,3.134,13.909ZM7,10.822a.746.746,0,0,1,.382.106l3.289,1.967L9.821,9.15a.744.744,0,0,1,.236-.725L12.94,5.9,9.125,5.549A.743.743,0,0,1,8.506,5.1L7,1.57,5.492,5.1a.741.741,0,0,1-.617.449l-3.816.347L3.943,8.424a.743.743,0,0,1,.236.726L3.33,12.894l3.289-1.966A.746.746,0,0,1,7,10.822ZM4.687,4.756h0Zm4.625,0h0Zm0,0" transform="translate(0 -0.492)"/></svg>