<svg xmlns="http://www.w3.org/2000/svg" width="64" height="43.631" viewBox="0 0 64 43.631"><defs><style>.a{fill:#3680fb;}</style></defs><path class="a" d="M52.323,650.412a5.91,5.91,0,0,0-4.17,1.72,5.79,5.79,0,0,0,0,8.288,5.932,5.932,0,0,0,4.17,1.72,5.865,5.865,0,0,0,0-11.729Zm0,9.122a3.258,3.258,0,1,1,0-6.516,3.258,3.258,0,0,1,0,6.516Zm1.512-28.657a1.266,1.266,0,0,0-.873-.339H46.277a1.307,1.307,0,0,0-1.3,1.3v10.686a1.307,1.307,0,0,0,1.3,1.3H56.885a1.307,1.307,0,0,0,1.3-1.3v-7.155a1.3,1.3,0,0,0-.43-.964Zm1.746,10.347h-8v-8.093h4.874l3.128,2.815ZM20.5,650.412a5.91,5.91,0,0,0-4.17,1.72,5.79,5.79,0,0,0,0,8.288,5.932,5.932,0,0,0,4.17,1.72,5.865,5.865,0,0,0,0-11.729Zm0,9.122a3.258,3.258,0,1,1,0-6.516,3.258,3.258,0,0,1,0,6.516Zm-8.692-7.519H9.188v-3.466a1.3,1.3,0,1,0-2.606,0v4.77a1.307,1.307,0,0,0,1.3,1.3h3.923a1.3,1.3,0,0,0,0-2.606Zm6.607-7.1a1.307,1.307,0,0,0-1.3-1.3H1.3a1.3,1.3,0,1,0,0,2.606H17.111A1.3,1.3,0,0,0,18.414,644.913Zm-14.465-4.7,15.808.091a1.316,1.316,0,0,0,1.316-1.29,1.291,1.291,0,0,0-1.29-1.316L3.975,637.6H3.962a1.3,1.3,0,0,0-.013,2.606Zm2.659-5.916H22.415a1.3,1.3,0,0,0,0-2.606H6.607a1.3,1.3,0,0,0,0,2.606Zm56.911-1.759h0L54.187,624.8a1.284,1.284,0,0,0-.834-.3H42.38v-4.692a1.307,1.307,0,0,0-1.3-1.3H7.884a1.307,1.307,0,0,0-1.3,1.3v9.539a1.3,1.3,0,1,0,2.606,0v-8.236h30.6v30.9H29.1a1.3,1.3,0,0,0,0,2.606H45.012a1.3,1.3,0,0,0,0-2.606H42.393v-24.9H52.9l8.5,7.037L61.3,651.989H59.947a1.3,1.3,0,1,0,0,2.606h2.645a1.3,1.3,0,0,0,1.3-1.29l.1-19.757A1.377,1.377,0,0,0,63.518,632.532Z" transform="translate(0 -618.51)"/></svg>