<svg xmlns="http://www.w3.org/2000/svg" width="52.775" height="16" viewBox="0 0 52.775 16"><defs><style>.a{fill:#3c58bf;}.b{fill:#293688;}.c{fill:#ffbc00;}.d{fill:#f7981d;}.e{fill:#ed7c00;}.f{fill:#051244;}</style></defs><path class="a" d="M184.8,195.479l2.681-15.079h4.188l-2.6,15.079Z" transform="translate(-165.449 -179.897)"/><path class="b" d="M184.8,195.479l3.435-15.079h3.435l-2.6,15.079Z" transform="translate(-165.449 -179.897)"/><path class="a" d="M260.817,176.27a10.625,10.625,0,0,0-3.853-.67c-4.188,0-7.2,2.094-7.2,5.11,0,2.262,2.094,3.435,3.77,4.188s2.178,1.257,2.178,1.927c0,1.005-1.34,1.508-2.513,1.508a9.105,9.105,0,0,1-4.021-.838l-.586-.251L248,190.679a13.583,13.583,0,0,0,4.775.838c4.44,0,7.372-2.094,7.372-5.277,0-1.759-1.089-3.1-3.6-4.188-1.508-.754-2.429-1.173-2.429-1.927,0-.67.754-1.34,2.429-1.34a7.684,7.684,0,0,1,3.183.586l.419.168.67-3.267Z" transform="translate(-222.031 -175.6)"/><path class="b" d="M260.817,176.27a10.625,10.625,0,0,0-3.853-.67c-4.188,0-6.45,2.094-6.45,5.11,0,2.262,1.34,3.435,3.016,4.188s2.178,1.257,2.178,1.927c0,1.005-1.34,1.508-2.513,1.508a9.105,9.105,0,0,1-4.021-.838l-.586-.251L248,190.679a13.583,13.583,0,0,0,4.775.838c4.44,0,7.372-2.094,7.372-5.277,0-1.759-1.089-3.1-3.6-4.188-1.508-.754-2.429-1.173-2.429-1.927,0-.67.754-1.34,2.429-1.34a7.684,7.684,0,0,1,3.183.586l.419.168.67-3.267Z" transform="translate(-222.031 -175.6)"/><path class="a" d="M366.861,180.4c-1.005,0-1.759.084-2.178,1.089l-6.283,13.99h4.524l.838-2.513h5.361l.5,2.513h4.021L370.128,180.4Zm-1.927,10.052c.251-.754,1.675-4.44,1.675-4.44s.335-.921.586-1.508l.251,1.424s.838,3.77,1.005,4.607h-3.518Z" transform="translate(-320.871 -179.897)"/><path class="b" d="M367.866,180.4c-1.005,0-1.759.084-2.178,1.089l-7.288,13.99h4.524l.838-2.513h5.361l.5,2.513h4.021L370.128,180.4Zm-2.932,10.052c.335-.838,1.675-4.44,1.675-4.44s.335-.921.586-1.508l.251,1.424s.838,3.77,1.005,4.607h-3.518Z" transform="translate(-320.871 -179.897)"/><path class="a" d="M57.483,191.671l-.419-2.178a12.143,12.143,0,0,0-5.864-6.618l3.77,13.4h4.524L66.279,181.2H61.755Z" transform="translate(-45.839 -180.614)"/><path class="b" d="M57.483,191.671l-.419-2.178a12.143,12.143,0,0,0-5.864-6.618l3.77,13.4h4.524L66.279,181.2H62.593Z" transform="translate(-45.839 -180.614)"/><path class="c" d="M0,180.4l.754.168c5.361,1.257,9.047,4.44,10.471,8.209l-1.508-7.12c-.251-1.005-1.005-1.257-1.927-1.257Z" transform="translate(0 -179.897)"/><path class="d" d="M0,180.4H0c5.361,1.257,9.8,4.524,11.225,8.293L9.8,182.746a2.045,2.045,0,0,0-2.01-1.592Z" transform="translate(0 -179.897)"/><path class="e" d="M0,180.4H0c5.361,1.257,9.8,4.524,11.225,8.293l-1.005-3.267A2.954,2.954,0,0,0,8.461,183Z" transform="translate(0 -179.897)"/><g transform="translate(5.445 2.178)"><path class="f" d="M62.387,204.777l-2.848-2.848-1.34,3.183-.335-2.094A12.143,12.143,0,0,0,52,196.4l3.77,13.4h4.524Z" transform="translate(-52 -196.4)"/><path class="f" d="M189.072,292.886l-3.6-3.686-.67,3.686Z" transform="translate(-170.894 -279.483)"/><path class="f" d="M255.288,274.8h0c.335.335.5.586.419.921,0,1.005-1.34,1.508-2.513,1.508a9.1,9.1,0,0,1-4.021-.838l-.586-.251L248,279.575a13.585,13.585,0,0,0,4.775.838c2.681,0,4.859-.754,6.115-2.094Z" transform="translate(-227.476 -266.591)"/><path class="f" d="M364,230.574h3.937l.838-2.513h5.361l.5,2.513h4.021l-1.424-6.115-5.026-4.859.251,1.34s.838,3.77,1.005,4.607h-3.518c.335-.838,1.675-4.44,1.675-4.44s.335-.922.586-1.508" transform="translate(-331.33 -217.171)"/></g></svg>